# MagicaVoxel @ Ephtracy

# group
o 

# material
mtllib torch.mtl
usemtl palette

# normals
vn -1 0 0
vn 1 0 0
vn 0 0 1
vn 0 0 -1
vn 0 -1 0
vn 0 1 0

# texcoords
vt 0.908203 0.5
vt 0.912109 0.5
vt 0.939453 0.5
vt 0.943359 0.5
vt 0.947266 0.5
vt 0.970703 0.5
vt 0.974609 0.5
vt 0.978516 0.5
vt 0.982422 0.5

# verts
v -0.1 0 0.1
v -0.1 0 0
v -0.1 0 -0.1
v -0.1 0.2 0.1
v -0.1 0.2 0
v -0.1 0.2 -0.1
v -0.1 0.4 0.1
v -0.1 0.4 0
v -0.1 0.4 -0.1
v -0.1 0.6 0.1
v -0.1 0.6 0
v -0.1 0.6 -0.1
v -0.1 0.7 0.1
v -0.1 0.7 0
v -0.1 0.7 -0.1
v -0.1 0.8 0.1
v -0.1 0.8 0
v -0.1 0.8 -0.1
v 0.1 0 0.1
v 0.1 0 0
v 0.1 0 -0.1
v 0.1 0.2 0.1
v 0.1 0.2 0
v 0.1 0.2 -0.1
v 0.1 0.4 0.1
v 0.1 0.4 0
v 0.1 0.4 -0.1
v 0.1 0.6 0.1
v 0.1 0.6 0
v 0.1 0.6 -0.1
v 0.1 0.7 0.1
v 0.1 0.7 0
v 0.1 0.7 -0.1
v 0.1 0.8 0.1
v 0.1 0.8 0
v 0.1 0.8 -0.1
v -0.1 0 0.1
v -0.1 0.2 0.1
v -0.1 0.4 0.1
v -0.1 0.6 0.1
v -0.1 0.7 0.1
v -0.1 0.8 0.1
v 0 0 0.1
v 0 0.2 0.1
v 0 0.4 0.1
v 0 0.6 0.1
v 0 0.7 0.1
v 0 0.8 0.1
v 0.1 0 0.1
v 0.1 0.2 0.1
v 0.1 0.4 0.1
v 0.1 0.6 0.1
v 0.1 0.7 0.1
v 0.1 0.8 0.1
v -0.1 0 -0.1
v -0.1 0.2 -0.1
v -0.1 0.4 -0.1
v -0.1 0.6 -0.1
v -0.1 0.7 -0.1
v -0.1 0.8 -0.1
v 0 0 -0.1
v 0 0.2 -0.1
v 0 0.4 -0.1
v 0 0.6 -0.1
v 0 0.7 -0.1
v 0 0.8 -0.1
v 0.1 0 -0.1
v 0.1 0.2 -0.1
v 0.1 0.4 -0.1
v 0.1 0.6 -0.1
v 0.1 0.7 -0.1
v 0.1 0.8 -0.1
v -0.1 0 0.1
v 0 0 0.1
v 0.1 0 0.1
v -0.1 0 0
v 0 0 0
v 0.1 0 0
v -0.1 0 -0.1
v 0 0 -0.1
v 0.1 0 -0.1
v -0.1 0.8 0.1
v 0 0.8 0.1
v 0.1 0.8 0.1
v -0.1 0.8 0
v 0 0.8 0
v 0.1 0.8 0
v -0.1 0.8 -0.1
v 0 0.8 -0.1
v 0.1 0.8 -0.1

# faces
f 4/2/1 2/2/1 1/2/1
f 5/1/1 3/1/1 2/1/1
f 5/2/1 2/2/1 4/2/1
f 6/1/1 3/1/1 5/1/1
f 7/4/1 5/4/1 4/4/1
f 8/3/1 6/3/1 5/3/1
f 8/4/1 5/4/1 7/4/1
f 9/3/1 6/3/1 8/3/1
f 10/7/1 8/7/1 7/7/1
f 11/6/1 9/6/1 8/6/1
f 11/7/1 8/7/1 10/7/1
f 12/6/1 9/6/1 11/6/1
f 13/8/1 11/8/1 10/8/1
f 14/5/1 12/5/1 11/5/1
f 14/8/1 11/8/1 13/8/1
f 15/5/1 12/5/1 14/5/1
f 16/9/1 14/9/1 13/9/1
f 17/8/1 15/8/1 14/8/1
f 17/9/1 14/9/1 16/9/1
f 18/8/1 15/8/1 17/8/1
f 19/1/2 20/1/2 22/1/2
f 20/2/2 21/2/2 23/2/2
f 22/1/2 20/1/2 23/1/2
f 23/2/2 21/2/2 24/2/2
f 22/3/2 23/3/2 25/3/2
f 23/4/2 24/4/2 26/4/2
f 25/3/2 23/3/2 26/3/2
f 26/4/2 24/4/2 27/4/2
f 25/6/2 26/6/2 28/6/2
f 26/7/2 27/7/2 29/7/2
f 28/6/2 26/6/2 29/6/2
f 29/7/2 27/7/2 30/7/2
f 28/9/2 29/9/2 31/9/2
f 29/8/2 30/8/2 32/8/2
f 31/9/2 29/9/2 32/9/2
f 32/8/2 30/8/2 33/8/2
f 31/5/2 32/5/2 34/5/2
f 32/9/2 33/9/2 35/9/2
f 34/5/2 32/5/2 35/5/2
f 35/9/2 33/9/2 36/9/2
f 43/2/3 38/2/3 37/2/3
f 44/4/3 39/4/3 38/4/3
f 44/2/3 38/2/3 43/2/3
f 45/7/3 40/7/3 39/7/3
f 45/4/3 39/4/3 44/4/3
f 46/8/3 41/8/3 40/8/3
f 46/7/3 40/7/3 45/7/3
f 47/9/3 42/9/3 41/9/3
f 47/8/3 41/8/3 46/8/3
f 48/9/3 42/9/3 47/9/3
f 49/1/3 44/1/3 43/1/3
f 50/3/3 45/3/3 44/3/3
f 50/1/3 44/1/3 49/1/3
f 51/6/3 46/6/3 45/6/3
f 51/3/3 45/3/3 50/3/3
f 52/9/3 47/9/3 46/9/3
f 52/6/3 46/6/3 51/6/3
f 53/5/3 48/5/3 47/5/3
f 53/9/3 47/9/3 52/9/3
f 54/5/3 48/5/3 53/5/3
f 55/1/4 56/1/4 61/1/4
f 56/3/4 57/3/4 62/3/4
f 61/1/4 56/1/4 62/1/4
f 57/6/4 58/6/4 63/6/4
f 62/3/4 57/3/4 63/3/4
f 58/5/4 59/5/4 64/5/4
f 63/6/4 58/6/4 64/6/4
f 59/8/4 60/8/4 65/8/4
f 64/5/4 59/5/4 65/5/4
f 65/8/4 60/8/4 66/8/4
f 61/2/4 62/2/4 67/2/4
f 62/4/4 63/4/4 68/4/4
f 67/2/4 62/2/4 68/2/4
f 63/7/4 64/7/4 69/7/4
f 68/4/4 63/4/4 69/4/4
f 64/8/4 65/8/4 70/8/4
f 69/7/4 64/7/4 70/7/4
f 65/9/4 66/9/4 71/9/4
f 70/8/4 65/8/4 71/8/4
f 71/9/4 66/9/4 72/9/4
f 76/2/5 74/2/5 73/2/5
f 77/1/5 75/1/5 74/1/5
f 77/2/5 74/2/5 76/2/5
f 78/1/5 75/1/5 77/1/5
f 79/1/5 77/1/5 76/1/5
f 80/2/5 78/2/5 77/2/5
f 80/1/5 77/1/5 79/1/5
f 81/2/5 78/2/5 80/2/5
f 82/9/6 83/9/6 85/9/6
f 83/5/6 84/5/6 86/5/6
f 85/9/6 83/9/6 86/9/6
f 86/5/6 84/5/6 87/5/6
f 85/8/6 86/8/6 88/8/6
f 86/9/6 87/9/6 89/9/6
f 88/8/6 86/8/6 89/8/6
f 89/9/6 87/9/6 90/9/6
